<svg xmlns="http://www.w3.org/2000/svg" width="106" height="26" viewBox="0 0 105.85 25.37"><g id="Layer_2" data-name="Layer 2"><g id="Layer_1-2" data-name="Layer 1"><path d="M32.34,15l3.33,8.89H23.22q-4.87-.33-4.23-4.54l0-.13,2.22-8.62h8.51l1.93-7.09-6.61-.06c-2.17.1-4.15.49-4.91,2.85L16.69,19.26a5.82,5.82,0,0,1-2.36,3.28,6.77,6.77,0,0,1-4.11,1.33h-.09L1.76,24,0,24l.43-1.42,2.41-9.16.26-1h11l-.77,2.28h-8L3.49,21.56l5.77,0c2.37,0,4.2-.85,5.33-4.43.49-1.88,1.09-3.76,1.59-5.64l1.51-5.77a5.93,5.93,0,0,1,2.64-3.29A10.2,10.2,0,0,1,25,1.14l10.17,0L32,12.94H23.36L21.67,19.8c-.12.92.46,1.42,1.74,1.51H32L29.71,15ZM13.72,10.6l2.85-6.7A26.78,26.78,0,0,1,13.52,5c.4.29.63.58.47.88L12.54,9l-8,0L3.11,5.83c-.16-.29.07-.59.47-.88a30.51,30.51,0,0,1-3-1.07l2.86,6.69ZM8.55.5l-3.27,4H7L8.55,2.58,10.1,4.51h1.72Z" style="fill:#cca36e;fill-rule:evenodd"/><path d="M46.49,16.44a8.26,8.26,0,0,1,.71-3.38,8.55,8.55,0,0,1,2.06-2.88A8.82,8.82,0,0,1,55.5,7.72a9.19,9.19,0,0,1,3.44.62,9.09,9.09,0,0,1,2.9,1.86,8.69,8.69,0,0,1,2,2.85,8.52,8.52,0,0,1,.68,3.39A9.25,9.25,0,0,1,64,19.77a8,8,0,0,1-1.74,2.73,9,9,0,0,1-6.74,2.87,8.73,8.73,0,0,1-6.69-2.91,8,8,0,0,1-1.71-2.74A9.1,9.1,0,0,1,46.49,16.44Zm3.33,0a6.29,6.29,0,0,0,.41,2.26,5.31,5.31,0,0,0,1.19,1.84,5.86,5.86,0,0,0,1.88,1.26,5.78,5.78,0,0,0,6.3-1.22,5.72,5.72,0,0,0,1.66-4.18,5.26,5.26,0,0,0-.4-2,5.7,5.7,0,0,0-1.16-1.77,5.9,5.9,0,0,0-1.94-1.37,5.59,5.59,0,0,0-2.28-.45,5.69,5.69,0,0,0-2.13.41,5.26,5.26,0,0,0-1.8,1.18,5.63,5.63,0,0,0-1.27,1.88A5.36,5.36,0,0,0,49.82,16.47Z" style="fill:#cca36e;fill-rule:evenodd"/><path d="M68.86,16.38H71a6.17,6.17,0,0,0,3.11-.62,2,2,0,0,0,1-1.86,2,2,0,0,0-.87-1.79,5.25,5.25,0,0,0-2.78-.57H68.86Zm4,2.25,4.69,6.56H74.27l-4.79-6.5H68.9v6.5H65.41V8.8h6.5a7.53,7.53,0,0,1,4.85,1.36,4.81,4.81,0,0,1,1.67,3.94C78.43,17.46,75.77,18.31,72.84,18.63Z" style="fill:#cca36e;fill-rule:evenodd"/><path d="M80.77,22.5l-2,2.72H75.36L86.51,8.84h3.76V25.22H86.89V22.5Zm6.1-2.31V13.35l-4.58,6.84Z" style="fill:#cca36e;fill-rule:evenodd"/><path d="M104.39,12.21a4.24,4.24,0,0,0-.49-.46,4,4,0,0,0-.93-.57,4.91,4.91,0,0,0-1.16-.37,6.13,6.13,0,0,0-1.31-.13,5.49,5.49,0,0,0-1.08.1,6,6,0,0,0-1,.3,4.89,4.89,0,0,0-.94.48,5.94,5.94,0,0,0-.83.67,6.36,6.36,0,0,0-.72.85,6.24,6.24,0,0,0-.54,1,6.11,6.11,0,0,0-.34,1,5.57,5.57,0,0,0-.11,1.08,7.08,7.08,0,0,0,.1,1.13,5.7,5.7,0,0,0,.31,1.07,5.41,5.41,0,0,0,1.17,1.79,5.72,5.72,0,0,0,.86.7,5.84,5.84,0,0,0,2.06.86,4.83,4.83,0,0,0,1.08.11,6.44,6.44,0,0,0,1.27-.12,5.32,5.32,0,0,0,1.15-.36,4.81,4.81,0,0,0,1-.59l1.95,2.7-.54.36a8.3,8.3,0,0,1-2.2.88,10.12,10.12,0,0,1-2.52.3,9.9,9.9,0,0,1-1.91-.19,8.09,8.09,0,0,1-1.77-.55,8.33,8.33,0,0,1-1.59-.9,9.36,9.36,0,0,1-1.43-1.26,8.52,8.52,0,0,1-1-1.27,8.07,8.07,0,0,1-.72-1.44,9,9,0,0,1-.59-3.26,8.14,8.14,0,0,1,.18-1.71,8.62,8.62,0,0,1,.53-1.63,8.19,8.19,0,0,1,.87-1.51,8.93,8.93,0,0,1,1.2-1.36,9.06,9.06,0,0,1,1.36-1.06,8.45,8.45,0,0,1,1.5-.76,8.24,8.24,0,0,1,1.63-.47,10.11,10.11,0,0,1,1.76-.15,10.27,10.27,0,0,1,2.51.29,10.51,10.51,0,0,1,1.28.37Z" style="fill:#cca36e;fill-rule:evenodd"/><polygon points="98.6 5 104.59 5 103.81 6.29 97.82 6.29 98.6 5" style="fill:#cca36e;fill-rule:evenodd"/><path d="M47.54.94h.38V2.47a1.4,1.4,0,0,0,.2.84.81.81,0,0,0,.66.24.93.93,0,0,0,.45-.1.81.81,0,0,0,.32-.29.79.79,0,0,0,.1-.27,3.16,3.16,0,0,0,0-.53V.94h.38V3.83h-.38V3.51a1.08,1.08,0,0,1-.39.3,1.4,1.4,0,0,1-.53.09,1.14,1.14,0,0,1-.93-.34,1.71,1.71,0,0,1-.29-1.12Zm3.65,3.12a.79.79,0,0,0,.32.4,1.08,1.08,0,0,0,.56.14,1.06,1.06,0,0,0,.82-.33,1.21,1.21,0,0,0,.31-.88V3.31a1.41,1.41,0,0,1-.49.43,1.32,1.32,0,0,1-.62.15A1.56,1.56,0,0,1,51,3.46a1.46,1.46,0,0,1-.45-1.09A1.44,1.44,0,0,1,51,1.3,1.49,1.49,0,0,1,52.05.87a1.47,1.47,0,0,1,.66.13,1.27,1.27,0,0,1,.49.41V.94h.38V3.35a1.64,1.64,0,0,1-.4,1.18A1.41,1.41,0,0,1,52.09,5a1.54,1.54,0,0,1-.87-.25,1.07,1.07,0,0,1-.48-.65Zm-.27-1.7a1.2,1.2,0,0,0,.34.85,1.1,1.1,0,0,0,1.6,0,1.1,1.1,0,0,0,.34-.8,1.18,1.18,0,0,0-.34-.84,1,1,0,0,0-.79-.35,1.1,1.1,0,0,0-.81.33A1.12,1.12,0,0,0,50.92,2.36Zm3.5,0a1.13,1.13,0,0,0,.33.83,1.09,1.09,0,0,0,.82.34,1.08,1.08,0,0,0,.82-.34,1.14,1.14,0,0,0,.33-.84A1.15,1.15,0,0,0,55.54,1.2a1,1,0,0,0-.79.34A1.15,1.15,0,0,0,54.42,2.38Zm-.41,0a1.48,1.48,0,0,1,.46-1.08A1.44,1.44,0,0,1,55.54.84a1.55,1.55,0,0,1,1.12.45,1.4,1.4,0,0,1,.46,1.06,1.52,1.52,0,0,1-.45,1.1,1.47,1.47,0,0,1-1.1.46,1.5,1.5,0,0,1-1.1-.45A1.48,1.48,0,0,1,54,2.38Zm3.37.54h.4a.6.6,0,0,0,.16.44.52.52,0,0,0,.4.18.55.55,0,0,0,.38-.13.47.47,0,0,0,.15-.35.45.45,0,0,0-.12-.33,1,1,0,0,0-.43-.24,1.62,1.62,0,0,1-.66-.35.73.73,0,0,1-.15-.48.76.76,0,0,1,.26-.57,1,1,0,0,1,1.23,0,.82.82,0,0,1,.24.59h-.41a.44.44,0,0,0-.14-.32.44.44,0,0,0-.33-.11.43.43,0,0,0-.31.12.38.38,0,0,0-.13.3.48.48,0,0,0,0,.22.57.57,0,0,0,.18.16,1.43,1.43,0,0,0,.31.12l.28.09a.93.93,0,0,1,.42.31.83.83,0,0,1,.13.49.81.81,0,0,1-.27.62,1,1,0,0,1-.68.24,1,1,0,0,1-.69-.26A1.06,1.06,0,0,1,57.38,2.92ZM60,3.83V1.31h-.57V.94H60V0h.38V.94H61v.37H60.4V3.83ZM61.67.6h-.38V0h.38Zm-.38,3.23V.94h.38V3.83Zm1.27,0V1.31H62V.94h.57V0H63V.94h.57v.37H63V3.83ZM66.78,2.5H64.06a1.14,1.14,0,0,0,.36.76,1.11,1.11,0,0,0,.8.29,1.08,1.08,0,0,0,.61-.17,1.13,1.13,0,0,0,.42-.47h.43a1.68,1.68,0,0,1-.58.74,1.59,1.59,0,0,1-2-.19,1.44,1.44,0,0,1-.46-1.08,1.43,1.43,0,0,1,.45-1.09A1.53,1.53,0,0,1,65.24.86a1.48,1.48,0,0,1,1.11.44,1.61,1.61,0,0,1,.43,1.17Zm-.43-.31a1.27,1.27,0,0,0-.4-.74,1.17,1.17,0,0,0-.76-.24,1.06,1.06,0,0,0-.74.26,1.13,1.13,0,0,0-.38.72Zm.88,1.64V0h.38V3.83ZM68.63.6h-.39V0h.39Zm0,.34v2.9a1.24,1.24,0,0,1-.15.72.63.63,0,0,1-.52.2h-.09V4.41c.15,0,.25,0,.3-.08a.78.78,0,0,0,.07-.44V.94Zm.43,2h.4a.6.6,0,0,0,.16.44.52.52,0,0,0,.4.18.55.55,0,0,0,.38-.13.47.47,0,0,0,.15-.35.45.45,0,0,0-.12-.33A1,1,0,0,0,70,2.5a1.56,1.56,0,0,1-.66-.35.73.73,0,0,1-.15-.48.73.73,0,0,1,.26-.57.86.86,0,0,1,.62-.24.87.87,0,0,1,.61.21.82.82,0,0,1,.24.59h-.41a.48.48,0,0,0-.14-.32A.44.44,0,0,0,70,1.23a.43.43,0,0,0-.31.12.38.38,0,0,0-.13.3.48.48,0,0,0,.05.22.53.53,0,0,0,.17.16,1.82,1.82,0,0,0,.32.12l.28.09a.93.93,0,0,1,.42.31A.83.83,0,0,1,71,3a.81.81,0,0,1-.27.62A1,1,0,0,1,70,3.9a.93.93,0,0,1-.68-.26A1.06,1.06,0,0,1,69.06,2.92Zm2.76.91h-.38V0h.38V2.28L72.91.94h.44L72.26,2.28l1.33,1.55H73.1L71.82,2.32ZM76.2,2.36a1.11,1.11,0,0,0-.35-.8,1.05,1.05,0,0,0-.78-.34,1.12,1.12,0,0,0-.83.34,1.15,1.15,0,0,0-.34.85,1.07,1.07,0,0,0,.34.81,1.12,1.12,0,0,0,1.62,0A1.22,1.22,0,0,0,76.2,2.36Zm0,1a1.18,1.18,0,0,1-.49.39A1.67,1.67,0,0,1,75,3.9a1.49,1.49,0,0,1-1.1-.43,1.47,1.47,0,0,1-.44-1.08A1.44,1.44,0,0,1,74,1.31,1.57,1.57,0,0,1,75.08.87a1.46,1.46,0,0,1,.63.14,1.25,1.25,0,0,1,.49.39V.94h.37V3.83H76.2Zm3,.46h-.39V.94h.36v.33A1,1,0,0,1,79.43,1a1,1,0,0,1,.39-.1V1.3a.78.78,0,0,0-.52.2.84.84,0,0,0-.16.58Zm3.56-1.47a1.11,1.11,0,0,0-.35-.8,1.05,1.05,0,0,0-.78-.34,1.12,1.12,0,0,0-.83.34,1.19,1.19,0,0,0-.34.85,1.07,1.07,0,0,0,.34.81,1.12,1.12,0,0,0,1.62,0A1.22,1.22,0,0,0,82.71,2.36Zm0,1a1.18,1.18,0,0,1-.49.39,1.67,1.67,0,0,1-.67.14,1.51,1.51,0,0,1-1.1-.43A1.47,1.47,0,0,1,80,2.39a1.44,1.44,0,0,1,.45-1.08A1.57,1.57,0,0,1,81.59.87a1.46,1.46,0,0,1,.63.14,1.25,1.25,0,0,1,.49.39V.94h.37V3.83h-.37Zm3.52-1a1.14,1.14,0,0,0-.34-.84,1,1,0,0,0-.8-.35,1.12,1.12,0,0,0-.81.33,1.07,1.07,0,0,0-.34.81,1.15,1.15,0,0,0,.34.85,1.12,1.12,0,0,0,.82.35,1.09,1.09,0,0,0,.79-.35A1.08,1.08,0,0,0,86.23,2.41Zm0-1V0h.39V3.83h-.39V3.39a1.36,1.36,0,0,1-.5.38,1.53,1.53,0,0,1-.64.13A1.45,1.45,0,0,1,84,3.46a1.46,1.46,0,0,1-.45-1.08A1.45,1.45,0,0,1,84,1.31,1.59,1.59,0,0,1,85.73,1a1.21,1.21,0,0,1,.49.38Zm1-.45h.38v.32A1.09,1.09,0,0,1,88,1a1.44,1.44,0,0,1,.53-.09,1.38,1.38,0,0,1,.59.12,1,1,0,0,1,.56.7,3.22,3.22,0,0,1,0,.62V3.83h-.37V2.21a1.12,1.12,0,0,0-.21-.75.84.84,0,0,0-.65-.23,1.08,1.08,0,0,0-.46.1.89.89,0,0,0-.32.29,1.08,1.08,0,0,0-.1.27c0,.1,0,.28,0,.53V3.83h-.38ZM90.74.6h-.39V0h.39Zm0,.34v2.9a1.24,1.24,0,0,1-.15.72.63.63,0,0,1-.52.2H90V4.41c.15,0,.25,0,.3-.08a.78.78,0,0,0,.07-.44V.94ZM93.9,2.36a1.1,1.1,0,0,0-.34-.8,1.08,1.08,0,0,0-.79-.34,1.11,1.11,0,0,0-.82.34,1.15,1.15,0,0,0-.34.85,1.07,1.07,0,0,0,.34.81,1.09,1.09,0,0,0,.81.34,1.08,1.08,0,0,0,.8-.35,1.18,1.18,0,0,0,.34-.85Zm0,1a1.15,1.15,0,0,1-.48.39,1.67,1.67,0,0,1-.67.14,1.49,1.49,0,0,1-1.1-.43,1.47,1.47,0,0,1-.44-1.08,1.44,1.44,0,0,1,.45-1.08A1.55,1.55,0,0,1,92.79.87a1.46,1.46,0,0,1,.63.14,1.15,1.15,0,0,1,.48.39V.94h.38V3.83H93.9Z" style="fill:#cca36e;fill-rule:evenodd"/></g></g></svg>