<?xml version="1.0" encoding="UTF-8"?> <!-- Generator: Adobe Illustrator 24.0.3, SVG Export Plug-In . SVG Version: 6.00 Build 0) --> <svg xmlns="http://www.w3.org/2000/svg" xmlns:xlink="http://www.w3.org/1999/xlink" id="Layer_1" x="0px" y="0px" viewBox="0 0 60 60" style="enable-background:new 0 0 60 60;" xml:space="preserve"> <style type="text/css"> .Drop_x0020_Shadow{fill:none;} .Outer_x0020_Glow_x0020_5_x0020_pt{fill:none;} .Blue_x0020_Neon{fill:none;stroke:#8AACDA;stroke-width:7;stroke-linecap:round;stroke-linejoin:round;} .Chrome_x0020_Highlight{fill:url(#SVGID_1_);stroke:#FFFFFF;stroke-width:0.3629;stroke-miterlimit:1;} .Jive_GS{fill:#FFDD00;} .Alyssa_GS{fill:#A6D0E4;} .st0{fill:#cca36e;} </style> <linearGradient id="SVGID_1_" gradientUnits="userSpaceOnUse" x1="-609.8571" y1="-481.7133" x2="-609.8571" y2="-482.7133"> <stop offset="0" style="stop-color:#656565"></stop> <stop offset="0.618" style="stop-color:#1B1B1B"></stop> <stop offset="0.6292" style="stop-color:#545454"></stop> <stop offset="0.9831" style="stop-color:#3E3E3E"></stop> </linearGradient> <linearGradient id="mail_icon_1_" gradientUnits="userSpaceOnUse" x1="-601.8595" y1="537.85" x2="-601.8595" y2="538.85" gradientTransform="matrix(60 0 0 -60.002 36141.5703 32332.084)"> <stop offset="0" style="stop-color:#C68234"></stop> <stop offset="1" style="stop-color:#FBB040"></stop> </linearGradient> <path id="mail_icon" class="st0" d="M14.7,18.5v22.9h30.7V18.5H14.7z M16.8,37.8V22.1l8.2,7.5L16.8,37.8z M30,34l3.3-3l8.3,8.3H18.4 l8.3-8.3L30,34z M18.6,20.7h22.9L30,31.1L18.6,20.7z M34.9,29.5l8.2-7.5v15.7L34.9,29.5z M30,0C13.4,0,0,13.4,0,30s13.4,30,30,30 s30-13.4,30-30C60,13.4,46.6,0,30,0L30,0z M30,58.1C14.5,58.1,1.9,45.5,1.9,30S14.5,1.9,30,1.9S58.1,14.5,58.1,30 C58,45.5,45.5,58,30,58.1L30,58.1z"></path> </svg>