<?xml version="1.0" encoding="UTF-8"?> <!-- Generator: Adobe Illustrator 24.0.3, SVG Export Plug-In . SVG Version: 6.00 Build 0) --> <svg xmlns="http://www.w3.org/2000/svg" xmlns:xlink="http://www.w3.org/1999/xlink" id="Layer_1" x="0px" y="0px" viewBox="0 0 60 60" style="enable-background:new 0 0 60 60;" xml:space="preserve"> <style type="text/css"> .Drop_x0020_Shadow{fill:none;} .Outer_x0020_Glow_x0020_5_x0020_pt{fill:none;} .Blue_x0020_Neon{fill:none;stroke:#8AACDA;stroke-width:7;stroke-linecap:round;stroke-linejoin:round;} .Chrome_x0020_Highlight{fill:url(#SVGID_1_);stroke:#FFFFFF;stroke-width:0.3629;stroke-miterlimit:1;} .Jive_GS{fill:#FFDD00;} .Alyssa_GS{fill:#A6D0E4;} .st0{fill:#cca36e;} </style> <linearGradient id="SVGID_1_" gradientUnits="userSpaceOnUse" x1="-609.8571" y1="-481.7143" x2="-609.8571" y2="-482.7143"> <stop offset="0" style="stop-color:#656565"></stop> <stop offset="0.618" style="stop-color:#1B1B1B"></stop> <stop offset="0.6292" style="stop-color:#545454"></stop> <stop offset="0.9831" style="stop-color:#3E3E3E"></stop> </linearGradient> <linearGradient id="location_icon_1_" gradientUnits="userSpaceOnUse" x1="-601.8595" y1="537.8488" x2="-601.8595" y2="538.8488" gradientTransform="matrix(60 0 0 -60 36141.5703 32330.9238)"> <stop offset="0" style="stop-color:#C68234"></stop> <stop offset="1" style="stop-color:#FBB040"></stop> </linearGradient> <path id="location_icon" class="st0" d="M30.2,14c-6.9,0-12.4,5.6-12.5,12.5c0,6.7,11.5,19.1,12,19.6l0.5,0.5l0.5-0.5 c0.5-0.5,12-12.8,12-19.6C42.6,19.5,37.1,14,30.2,14z M40.4,26.4c0,2.3-2,6.2-5.6,11c-1.9,2.5-3.7,4.6-4.6,5.6 c-0.9-1-2.7-3.1-4.6-5.7c-3.6-4.9-5.6-8.7-5.6-11c0-5.6,4.6-10.2,10.2-10.1S40.4,20.8,40.4,26.4L40.4,26.4z M30.2,19.6 c-3.4,0-6.2,2.8-6.2,6.2c0,3.4,2.8,6.2,6.2,6.2c3.4,0,6.2-2.8,6.2-6.2C36.4,22.4,33.6,19.7,30.2,19.6L30.2,19.6z M34.1,25.9 c0,2.2-1.7,4-3.9,4s-4-1.7-4-3.9c0-2.2,1.7-4,3.9-4c1.1,0,2.1,0.4,2.8,1.2C33.7,23.9,34.1,24.9,34.1,25.9L34.1,25.9z M30,0 C13.4,0,0,13.4,0,30s13.4,30,30,30s30-13.4,30-30C60,13.4,46.6,0,30,0L30,0z M30,58.1C14.5,58.1,1.9,45.5,1.9,30S14.5,1.9,30,1.9 S58.1,14.5,58.1,30C58,45.5,45.5,58.1,30,58.1L30,58.1z"></path> </svg>