<?xml version="1.0" encoding="UTF-8"?> <!-- Generator: Adobe Illustrator 24.0.3, SVG Export Plug-In . SVG Version: 6.00 Build 0) --> <svg xmlns="http://www.w3.org/2000/svg" xmlns:xlink="http://www.w3.org/1999/xlink" id="Layer_1" x="0px" y="0px" viewBox="0 0 60 60" style="enable-background:new 0 0 60 60;" xml:space="preserve"> <style type="text/css"> .Drop_x0020_Shadow{fill:none;} .Outer_x0020_Glow_x0020_5_x0020_pt{fill:none;} .Blue_x0020_Neon{fill:none;stroke:#8AACDA;stroke-width:7;stroke-linecap:round;stroke-linejoin:round;} .Chrome_x0020_Highlight{fill:url(#SVGID_1_);stroke:#FFFFFF;stroke-width:0.3629;stroke-miterlimit:1;} .Jive_GS{fill:#FFDD00;} .Alyssa_GS{fill:#A6D0E4;} .st0{fill:#cca36e;} </style> <linearGradient id="SVGID_1_" gradientUnits="userSpaceOnUse" x1="-609.8571" y1="-481.7143" x2="-609.8571" y2="-482.7143"> <stop offset="0" style="stop-color:#656565"></stop> <stop offset="0.618" style="stop-color:#1B1B1B"></stop> <stop offset="0.6292" style="stop-color:#545454"></stop> <stop offset="0.9831" style="stop-color:#3E3E3E"></stop> </linearGradient> <linearGradient id="Path_92_1_" gradientUnits="userSpaceOnUse" x1="-601.8594" y1="537.8488" x2="-601.8594" y2="538.8488" gradientTransform="matrix(60 0 0 -60 36141.5664 32330.9277)"> <stop offset="0" style="stop-color:#C68234"></stop> <stop offset="1" style="stop-color:#FBB040"></stop> </linearGradient> <path id="Path_92" class="st0" d="M39.2,20L39.2,20c-0.4,0-0.7,0.1-1,0.4l-6.9,6.9C30.2,26.8,29,27,28,27.7l-4.9-2.8 c-0.7-0.4-1.6-0.2-1.9,0.5c0,0,0,0,0,0c-0.4,0.7-0.2,1.6,0.5,1.9l5,2.9v0c0,1.8,1.4,3.2,3.2,3.2c1.8,0,3.2-1.4,3.2-3.2c0,0,0,0,0,0 c0-0.3,0-0.5-0.1-0.8l7.1-7.1c0.6-0.6,0.6-1.5,0-2C39.9,20.1,39.6,20,39.2,20L39.2,20z M29.7,30.3c0.1-0.1,0.1-0.3,0.1-0.4 c0,0,0.1,0,0.2,0c0.2,0,0.4,0.2,0.4,0.4s-0.2,0.4-0.4,0.4C29.8,30.7,29.7,30.5,29.7,30.3C29.6,30.3,29.7,30.3,29.7,30.3L29.7,30.3z M30,20.6c-0.8,0-1.4-0.6-1.4-1.4V18c0-0.8,0.6-1.4,1.4-1.4c0.8,0,1.4,0.6,1.4,1.4v1.1C31.4,19.9,30.8,20.6,30,20.6z M18.9,28.8 c0.8,0,1.4,0.6,1.4,1.4c0,0.8-0.6,1.4-1.4,1.4l0,0h-1.1c-0.8,0-1.4-0.6-1.4-1.4c0-0.8,0.6-1.4,1.4-1.4H18.9z M50.5,26.6l-2.8,5.8 c-0.2,0.4-0.6,0.7-1.1,0.8c-0.1,0-0.1,0-0.2,0c-0.4,0-0.8-0.2-1.1-0.5l-4-5c-0.5-0.6-0.4-1.5,0.3-2c0.6-0.5,1.5-0.4,2,0.2l0.7,0.8 c-2-7.9-9.9-12.7-17.8-10.7s-12.7,9.9-10.7,17.8c1.3,5.2,5.3,9.3,10.5,10.7c0.8,0.2,1.2,1,1,1.7c-0.2,0.6-0.7,1.1-1.4,1.1 c-0.1,0-0.2,0-0.4,0c-9.4-2.5-15-12-12.5-21.4c2.5-9.4,12-15,21.4-12.5c6.5,1.7,11.5,7,12.8,13.6l0.7-1.5c0.3-0.7,1.2-1,1.9-0.7 c0,0,0,0,0,0C50.5,25.1,50.8,25.9,50.5,26.6L50.5,26.6z M30,60C13.4,60,0,46.6,0,30S13.4,0,30,0s30,13.4,30,30l0,0 C60,46.6,46.6,60,30,60L30,60z M30,1.9C14.5,1.9,1.9,14.5,1.9,30S14.5,58.1,30,58.1S58.1,45.5,58.1,30C58,14.5,45.5,2,30,1.9L30,1.9 z"></path> </svg>