<?xml version="1.0" encoding="UTF-8"?> <!-- Generator: Adobe Illustrator 24.0.3, SVG Export Plug-In . SVG Version: 6.00 Build 0) --> <svg xmlns="http://www.w3.org/2000/svg" xmlns:xlink="http://www.w3.org/1999/xlink" id="Layer_1" x="0px" y="0px" viewBox="0 0 60 60" style="enable-background:new 0 0 60 60;" xml:space="preserve"> <style type="text/css"> .Drop_x0020_Shadow{fill:none;} .Outer_x0020_Glow_x0020_5_x0020_pt{fill:none;} .Blue_x0020_Neon{fill:none;stroke:#8AACDA;stroke-width:7;stroke-linecap:round;stroke-linejoin:round;} .Chrome_x0020_Highlight{fill:url(#SVGID_1_);stroke:#FFFFFF;stroke-width:0.3629;stroke-miterlimit:1;} .Jive_GS{fill:#FFDD00;} .Alyssa_GS{fill:#A6D0E4;} .st0{fill:#cca36e;} </style> <linearGradient id="SVGID_1_" gradientUnits="userSpaceOnUse" x1="-609.8571" y1="-481.7143" x2="-609.8571" y2="-482.7143"> <stop offset="0" style="stop-color:#656565"></stop> <stop offset="0.618" style="stop-color:#1B1B1B"></stop> <stop offset="0.6292" style="stop-color:#545454"></stop> <stop offset="0.9831" style="stop-color:#3E3E3E"></stop> </linearGradient> <linearGradient id="phone_icon_1_" gradientUnits="userSpaceOnUse" x1="-601.8595" y1="537.8488" x2="-601.8595" y2="538.8488" gradientTransform="matrix(60 0 0 -60 36141.5703 32330.9277)"> <stop offset="0" style="stop-color:#C68234"></stop> <stop offset="1" style="stop-color:#FBB040"></stop> </linearGradient> <path id="phone_icon" class="st0" d="M44.3,35.2l-4.9-3.6c-1.1-0.8-2.5-0.7-3.5,0.1l-2.5,2.1c-0.2,0.2-0.6,0.2-0.8,0 c-1.3-0.9-2.5-2-3.6-3.1c-0.9-1-1.8-2-2.6-3.2c-0.2-0.3-0.2-0.6,0-0.8l2.2-2.7c0.8-1,0.9-2.5,0.1-3.5l-3.6-4.9c-0.8-1-2.1-1.4-3.3-1 l-5.5,2c-1.3,0.5-2.1,1.9-1.8,3.3c1.4,6.1,4.4,11.7,8.7,16.2c2.5,2.5,5.3,4.7,8.3,6.5c4,2.3,6.7,2.7,8.3,2.7h0.1c0.1,0,0.2,0,0.3,0 c0.2,0,0.4,0,0.5,0c0.3,0,0.6-0.1,0.9-0.2c0.7-0.3,1.2-0.9,1.5-1.6l1.9-5.3C45.7,37.2,45.3,35.9,44.3,35.2z M40.6,43.7l-0.1-0.4 c-0.2,0-0.4,0-0.5,0H40c-3.9,0-10.4-3.7-15.1-8.6c-4.1-4.2-6.9-9.4-8.2-15.1c-0.1-0.3,0.1-0.7,0.4-0.8l5.5-2c0.1,0,0.2,0,0.2,0 c0.2,0,0.4,0.1,0.6,0.3l3.6,4.9c0.2,0.2,0.2,0.6,0,0.8l-2.2,2.7c-0.8,1-0.9,2.4-0.1,3.5c0.8,1.2,1.8,2.4,2.8,3.4 c1.2,1.2,2.5,2.3,3.8,3.3c1.1,0.7,2.5,0.7,3.5-0.1l2.5-2.1c0.2-0.2,0.6-0.2,0.8,0l4.9,3.6c0.2,0.2,0.3,0.5,0.2,0.8l-1.9,5.3 c-0.1,0.2-0.2,0.3-0.4,0.4c-0.1,0-0.2,0-0.2,0L40.6,43.7L40.6,43.7z M30,0C13.4,0,0,13.4,0,30s13.4,30,30,30s30-13.4,30-30 C60,13.4,46.6,0,30,0L30,0z M30,58.1C14.5,58.1,1.9,45.5,1.9,30S14.5,1.9,30,1.9S58.1,14.5,58.1,30C58,45.5,45.5,58,30,58.1L30,58.1 z"></path> </svg>