<?xml version="1.0" encoding="utf-8"?>
<!-- Generator: Adobe Illustrator 23.0.4, SVG Export Plug-In . SVG Version: 6.00 Build 0)  -->
<svg version="1.1" id="Layer_1" xmlns="http://www.w3.org/2000/svg" xmlns:xlink="http://www.w3.org/1999/xlink" x="0px" y="0px"
	 viewBox="0 0 19 19" style="enable-background:new 0 0 19 19;" xml:space="preserve">
<style type="text/css">
	.Drop_x0020_Shadow{fill:none;}
	.Outer_x0020_Glow_x0020_5_x0020_pt{fill:none;}
	.Blue_x0020_Neon{fill:none;stroke:#8AACDA;stroke-width:7;stroke-linecap:round;stroke-linejoin:round;}
	.Chrome_x0020_Highlight{fill:url(#SVGID_1_);stroke:#FFFFFF;stroke-width:0.3629;stroke-miterlimit:1;}
	.Jive_GS{fill:#FFDD00;}
	.Alyssa_GS{fill:#A6D0E4;}
	.st0{fill:#FFFFFF;}
</style>
<linearGradient id="SVGID_1_" gradientUnits="userSpaceOnUse" x1="-673.5049" y1="-373.9941" x2="-673.5049" y2="-374.9941">
	<stop  offset="0" style="stop-color:#656565"/>
	<stop  offset="0.618" style="stop-color:#1B1B1B"/>
	<stop  offset="0.6292" style="stop-color:#545454"/>
	<stop  offset="0.9831" style="stop-color:#3E3E3E"/>
</linearGradient>
<path class="st0" d="M18.3,12.8l-3-2.2c-0.6-0.4-1.5-0.4-2,0.1l-1.6,1.3c-0.2,0.2-0.5,0.2-0.7,0c-0.8-0.6-1.5-1.2-2.2-1.9
	c-0.6-0.6-1.1-1.3-1.6-2C7,7.9,7,7.6,7.2,7.4l1.4-1.6c0.5-0.6,0.5-1.4,0.1-2l-2.2-3C6,0.1,5.2-0.2,4.5,0.1L1.1,1.4
	C0.3,1.6-0.1,2.5,0,3.3c0.8,3.8,2.7,7.2,5.4,10c1.5,1.5,3.3,3,5.2,4c2.5,1.4,4.1,1.7,5.1,1.7h0.1c0.1,0,0.1,0,0.2,0
	c0.1,0,0.2,0,0.3,0c0.2,0,0.4,0,0.5-0.1c0.4-0.2,0.7-0.5,0.9-0.9l1.2-3.3C19.2,14,18.9,13.2,18.3,12.8z M6.2,8.7
	c0.5,0.7,1.1,1.5,1.7,2.1c0.7,0.8,1.5,1.5,2.4,2.1c0.6,0.4,1.5,0.4,2-0.1l1.6-1.3c0.2-0.2,0.5-0.2,0.7,0l3,2.2
	c0.2,0.1,0.3,0.4,0.2,0.6l-1.2,3.3c0,0.1-0.1,0.2-0.3,0.3c0,0-0.2,0-0.3,0c-0.1,0-0.2,0-0.4,0c0,0,0,0,0,0l0,0
	c-2.4,0-6.5-2.3-9.5-5.4C3.7,9.8,1.9,6.6,1.1,3C1.1,2.8,1.2,2.5,1.5,2.4l3.4-1.3c0.2-0.1,0.5,0,0.6,0.2l2.2,3c0.1,0.2,0.1,0.5,0,0.7
	L6.3,6.7C5.9,7.3,5.8,8.1,6.2,8.7z"/>
</svg>
