<?xml version="1.0" encoding="utf-8"?>
<!-- Generator: Adobe Illustrator 23.0.4, SVG Export Plug-In . SVG Version: 6.00 Build 0)  -->
<svg version="1.1" id="Layer_1" xmlns="http://www.w3.org/2000/svg" xmlns:xlink="http://www.w3.org/1999/xlink" x="0px" y="0px"
	 viewBox="0 0 16.1 21" style="enable-background:new 0 0 16.1 21;" xml:space="preserve">
<style type="text/css">
	.Drop_x0020_Shadow{fill:none;}
	.Outer_x0020_Glow_x0020_5_x0020_pt{fill:none;}
	.Blue_x0020_Neon{fill:none;stroke:#8AACDA;stroke-width:7;stroke-linecap:round;stroke-linejoin:round;}
	.Chrome_x0020_Highlight{fill:url(#SVGID_1_);stroke:#FFFFFF;stroke-width:0.3629;stroke-miterlimit:1;}
	.Jive_GS{fill:#FFDD00;}
	.Alyssa_GS{fill:#A6D0E4;}
	.st0{fill:#FFFFFF;}
</style>
<linearGradient id="SVGID_1_" gradientUnits="userSpaceOnUse" x1="-674.5088" y1="-372.6479" x2="-674.5088" y2="-373.6479">
	<stop  offset="0" style="stop-color:#656565"/>
	<stop  offset="0.618" style="stop-color:#1B1B1B"/>
	<stop  offset="0.6292" style="stop-color:#545454"/>
	<stop  offset="0.9831" style="stop-color:#3E3E3E"/>
</linearGradient>
<g>
	<path class="st0" d="M8,0C3.6,0,0,3.6,0,8c0,4.3,7.5,12.4,7.8,12.8L8,21l0.2-0.2c0.3-0.3,7.8-8.4,7.8-12.8C16.1,3.6,12.5,0,8,0z
		 M8,1.2c3.7,0,6.8,3.1,6.8,6.8c0,1.5-1.3,4.1-3.7,7.3c-1.3,1.8-2.6,3.2-3.1,3.8c-0.6-0.6-1.8-2.1-3.1-3.8C2.5,12.1,1.2,9.6,1.2,8
		C1.2,4.3,4.3,1.2,8,1.2z"/>
	<path class="st0" d="M8,11.6c2.2,0,3.9-1.8,3.9-3.9c0-2.2-1.8-3.9-3.9-3.9S4.1,5.5,4.1,7.7C4.1,9.8,5.9,11.6,8,11.6z M8,5
		c0.7,0,1.4,0.3,1.9,0.8c0.5,0.5,0.8,1.2,0.8,1.9s-0.3,1.4-0.8,1.9c-0.5,0.5-1.2,0.8-1.9,0.8c-0.7,0-1.4-0.3-1.9-0.8
		S5.3,8.4,5.3,7.7s0.3-1.4,0.8-1.9S7.3,5,8,5z"/>
</g>
</svg>
