<svg xmlns="http://www.w3.org/2000/svg" width="106" height="25" viewBox="0 0 105.85 24.88"><g id="Layer_2" data-name="Layer 2"><g id="Layer_1-2" data-name="Layer 1"><path d="M32.34,14.52l3.33,8.89H23.22q-4.87-.33-4.23-4.54l0-.13,2.22-8.62h8.51L31.68,3,25.07,3c-2.17.1-4.15.49-4.91,2.85L16.69,18.76A5.82,5.82,0,0,1,14.33,22a6.77,6.77,0,0,1-4.11,1.33h-.09l-8.37.1L0,23.49l.43-1.42,2.41-9.15.26-1h11l-.77,2.28h-8L3.49,21.06l5.77,0c2.37,0,4.2-.85,5.33-4.43.49-1.88,1.09-3.76,1.59-5.64l1.51-5.76A5.92,5.92,0,0,1,20.33,2,10.2,10.2,0,0,1,25,.64L35.12.6,32,12.45H23.36L21.67,19.3c-.12.92.46,1.42,1.74,1.51H32l-2.29-6.3ZM13.72,10.1l2.85-6.69a28.84,28.84,0,0,1-3.05,1.07c.4.29.63.59.47.88L12.54,8.51l-8,0L3.11,5.33c-.16-.29.07-.58.47-.88a30.51,30.51,0,0,1-3-1.07l2.86,6.69ZM8.55,0,5.28,4H7L8.55,2.08,10.1,4h1.72Z" style="fill:#cca36e;fill-rule:evenodd"/><path d="M46.49,15.94a8.3,8.3,0,0,1,.71-3.38,8.55,8.55,0,0,1,2.06-2.88A8.82,8.82,0,0,1,55.5,7.22a9.19,9.19,0,0,1,3.44.62,9.09,9.09,0,0,1,2.9,1.86,8.69,8.69,0,0,1,2,2.85,8.52,8.52,0,0,1,.68,3.39A9.17,9.17,0,0,1,64,19.27,8,8,0,0,1,62.22,22a9.14,9.14,0,0,1-6.74,2.87A8.79,8.79,0,0,1,48.79,22a7.91,7.91,0,0,1-1.71-2.74A9.1,9.1,0,0,1,46.49,15.94Zm3.33,0a6.28,6.28,0,0,0,.41,2.25,5.31,5.31,0,0,0,1.19,1.84,6.06,6.06,0,0,0,1.88,1.27,5.76,5.76,0,0,0,6.3-1.23,5.72,5.72,0,0,0,1.66-4.18,5.26,5.26,0,0,0-.4-2,5.7,5.7,0,0,0-1.16-1.77,5.9,5.9,0,0,0-1.94-1.37,5.59,5.59,0,0,0-2.28-.45,5.69,5.69,0,0,0-2.13.41,5.41,5.41,0,0,0-1.8,1.18,5.73,5.73,0,0,0-1.27,1.88A5.37,5.37,0,0,0,49.82,16Z" style="fill:#cca36e;fill-rule:evenodd"/><path d="M68.86,15.88H71a6.17,6.17,0,0,0,3.11-.62,2,2,0,0,0,1-1.86,2,2,0,0,0-.87-1.79A5.25,5.25,0,0,0,71.48,11H68.86Zm4,2.25,4.69,6.56H74.27l-4.79-6.5H68.9v6.5H65.41V8.3h6.5a7.59,7.59,0,0,1,4.85,1.36,4.81,4.81,0,0,1,1.67,3.94C78.43,17,75.77,17.81,72.84,18.13Z" style="fill:#cca36e;fill-rule:evenodd"/><path d="M80.77,22l-2,2.72H75.36L86.51,8.34h3.76V24.72H86.89V22Zm6.1-2.31V12.85l-4.58,6.84Z" style="fill:#cca36e;fill-rule:evenodd"/><path d="M104.39,11.71a5.33,5.33,0,0,0-.49-.46,4,4,0,0,0-.93-.57,4.91,4.91,0,0,0-1.16-.37,6.13,6.13,0,0,0-1.31-.13,6.38,6.38,0,0,0-1.08.1,6,6,0,0,0-1,.3,4.41,4.41,0,0,0-.94.49,5.23,5.23,0,0,0-.83.66,5.86,5.86,0,0,0-.72.86,5.73,5.73,0,0,0-.54,1,6.11,6.11,0,0,0-.34,1,5.65,5.65,0,0,0-.11,1.08,7,7,0,0,0,.1,1.13,5.7,5.7,0,0,0,.31,1.07,4.6,4.6,0,0,0,.5,1,4.87,4.87,0,0,0,.67.83,6.49,6.49,0,0,0,.86.71,6.69,6.69,0,0,0,1,.53,6,6,0,0,0,1.07.32,4.83,4.83,0,0,0,1.08.11,6.44,6.44,0,0,0,1.27-.12,5.32,5.32,0,0,0,1.15-.36,4.81,4.81,0,0,0,1-.59l1.95,2.7-.54.36a8.3,8.3,0,0,1-2.2.88,10.12,10.12,0,0,1-2.52.3,9.9,9.9,0,0,1-1.91-.19,8.65,8.65,0,0,1-1.77-.54,9,9,0,0,1-1.59-.91,9.36,9.36,0,0,1-1.43-1.26,8.52,8.52,0,0,1-1-1.27,8.07,8.07,0,0,1-.72-1.44,9,9,0,0,1-.59-3.26,8.14,8.14,0,0,1,.18-1.71,8.62,8.62,0,0,1,.53-1.63,8.19,8.19,0,0,1,.87-1.51,9.43,9.43,0,0,1,1.2-1.36,9.06,9.06,0,0,1,1.36-1.06,8.45,8.45,0,0,1,1.5-.76,8.24,8.24,0,0,1,1.63-.47A10.11,10.11,0,0,1,100.62,7a10.79,10.79,0,0,1,2.51.29,10.51,10.51,0,0,1,1.28.37Z" style="fill:#cca36e;fill-rule:evenodd"/><polygon points="98.6 4.5 104.59 4.5 103.81 5.79 97.82 5.79 98.6 4.5" style="fill:#cca36e;fill-rule:evenodd"/></g></g></svg>