<svg xmlns="http://www.w3.org/2000/svg" viewBox="0 0 35.67 23.49"><g id="Layer_2" data-name="Layer 2"><g id="Layer_1-2" data-name="Layer 1"><path d="M32.34,14.52l3.33,8.89H23.22q-4.87-.33-4.23-4.54l0-.13,2.22-8.62h8.51L31.68,3,25.07,3c-2.17.1-4.15.49-4.91,2.85L16.69,18.76A5.82,5.82,0,0,1,14.33,22a6.77,6.77,0,0,1-4.11,1.33h-.09l-8.37.1L0,23.49l.43-1.42,2.41-9.15.26-1h11l-.77,2.28h-8L3.49,21.06l5.77,0c2.37,0,4.2-.85,5.33-4.43.49-1.88,1.09-3.76,1.59-5.64l1.51-5.76A5.92,5.92,0,0,1,20.33,2,10.2,10.2,0,0,1,25,.64L35.12.6,32,12.45H23.36L21.67,19.3c-.12.92.46,1.42,1.74,1.51H32l-2.29-6.3ZM13.72,10.1l2.85-6.69a28.84,28.84,0,0,1-3.05,1.07c.4.29.63.59.47.88L12.54,8.51l-8,0L3.11,5.33c-.16-.29.07-.58.47-.88a30.51,30.51,0,0,1-3-1.07l2.86,6.69ZM8.55,0,5.28,4H7L8.55,2.08,10.1,4h1.72Z" style="fill:#5b403c;fill-rule:evenodd"/></g></g></svg>